<svg width="16" height="16" viewBox="0 0 16 16" fill="none" xmlns="http://www.w3.org/2000/svg">
<path d="M13.3024 10.9827C13.3024 10.9093 13.2959 10.856 13.2829 10.8227C13.2698 10.7893 13.2103 10.7343 13.1042 10.6577C12.9999 10.581 12.8677 10.4968 12.7079 10.4052C12.5464 10.3152 12.3906 10.2268 12.2405 10.1402C12.0905 10.0535 11.9412 9.96932 11.7928 9.88766C11.646 9.80766 11.553 9.75766 11.5139 9.73766C11.4812 9.71766 11.4184 9.67432 11.3255 9.60766C11.2341 9.54099 11.1525 9.49099 11.0808 9.45766C11.009 9.42432 10.9397 9.40766 10.8728 9.40766C10.7749 9.40766 10.6559 9.47599 10.5156 9.61266C10.3737 9.74932 10.244 9.90016 10.1265 10.0652C10.0091 10.2285 9.88268 10.3785 9.74729 10.5152C9.61354 10.6535 9.50425 10.7227 9.41943 10.7227C9.37375 10.7227 9.31993 10.711 9.25794 10.6877C9.19432 10.6643 9.14294 10.6427 9.10379 10.6227C9.06465 10.6027 9.00919 10.5702 8.93742 10.5252C8.86564 10.4818 8.81997 10.4535 8.8004 10.4402C8.15119 10.0718 7.59414 9.64849 7.12926 9.17016C6.66274 8.69182 6.24598 8.12099 5.87897 7.45766C5.86592 7.43766 5.83819 7.39099 5.79578 7.31766C5.75337 7.24432 5.72237 7.18682 5.7028 7.14516C5.68322 7.10516 5.66202 7.05349 5.63918 6.99016C5.61635 6.92682 5.60493 6.87182 5.60493 6.82516C5.60493 6.73849 5.67181 6.62599 5.80556 6.48766C5.94095 6.35099 6.08857 6.22266 6.24843 6.10266C6.40828 5.98099 6.5559 5.84849 6.69129 5.70516C6.82505 5.56182 6.89192 5.43932 6.89192 5.33766C6.89192 5.27099 6.87561 5.20099 6.84299 5.12766C6.81037 5.05432 6.76143 4.97016 6.69618 4.87516C6.63094 4.78182 6.58853 4.71849 6.56895 4.68516C6.54938 4.64516 6.49963 4.55016 6.4197 4.40016C6.3414 4.24849 6.25984 4.09599 6.17502 3.94266C6.0902 3.78766 6.00293 3.62849 5.91322 3.46516C5.82514 3.30182 5.74358 3.16599 5.66854 3.05766C5.59351 2.95099 5.53968 2.89099 5.50706 2.87766C5.47443 2.86432 5.42142 2.85766 5.34802 2.85766C5.03483 2.85766 4.70452 2.93099 4.35708 3.07766C4.05531 3.21932 3.7927 3.53599 3.56922 4.02766C3.34738 4.51932 3.23647 4.95599 3.23647 5.33766C3.23647 5.44599 3.24462 5.56016 3.26093 5.68016C3.27724 5.80016 3.29356 5.90182 3.30987 5.98516C3.32618 6.07016 3.35554 6.18099 3.39795 6.31766C3.44036 6.45432 3.47299 6.55349 3.49582 6.61516C3.51866 6.67516 3.55944 6.78516 3.61816 6.94516C3.67688 7.10682 3.71277 7.20766 3.72582 7.24766C4.12056 8.34599 4.83012 9.41849 5.8545 10.4652C6.88051 11.5135 7.93098 12.2385 9.00592 12.6402C9.04507 12.6535 9.14376 12.6902 9.30198 12.7502C9.45858 12.8118 9.56623 12.8543 9.62495 12.8777C9.68368 12.901 9.78073 12.9343 9.91612 12.9777C10.0499 13.021 10.1575 13.051 10.2391 13.0677C10.3223 13.0843 10.4226 13.101 10.54 13.1177C10.6575 13.1343 10.7684 13.1427 10.8728 13.1427C11.2463 13.1427 11.6745 13.0293 12.1573 12.8027C12.6385 12.5743 12.9477 12.306 13.0847 11.9977C13.2298 11.6427 13.3024 11.3043 13.3024 10.9827ZM15.8177 3.17766V12.8227C15.8177 13.6193 15.5412 14.3002 14.9883 14.8652C14.4337 15.4318 13.7665 15.7152 12.9868 15.7152H3.54965C2.76995 15.7152 2.10362 15.4318 1.55065 14.8652C0.996049 14.3002 0.71875 13.6193 0.71875 12.8227V3.17766C0.71875 2.38099 0.996049 1.70016 1.55065 1.13516C2.10362 0.56849 2.76995 0.285156 3.54965 0.285156H12.9868C13.7665 0.285156 14.4337 0.56849 14.9883 1.13516C15.5412 1.70016 15.8177 2.38099 15.8177 3.17766Z" fill="black"/>
</svg>
