<svg width="18" height="18" viewBox="0 0 18 18" fill="none" xmlns="http://www.w3.org/2000/svg">
<path d="M17.6 7.13227V15.1073C17.6 15.5489 17.446 15.9273 17.138 16.2423C16.83 16.5573 16.4601 16.7148 16.0282 16.7148H1.57178C1.13993 16.7148 0.77 16.5573 0.462 16.2423C0.154 15.9273 0 15.5489 0 15.1073V7.13227C0.288444 7.4606 0.619259 7.75143 0.992444 8.00477C3.36193 9.6531 4.98911 10.8081 5.874 11.4698C6.24719 11.7514 6.54948 11.9714 6.78089 12.1298C7.01393 12.2864 7.32356 12.4464 7.70978 12.6098C8.096 12.7748 8.45615 12.8573 8.79022 12.8573H8.8H8.80978C9.14385 12.8573 9.504 12.7748 9.89022 12.6098C10.2764 12.4464 10.5861 12.2864 10.8191 12.1298C11.0505 11.9714 11.3528 11.7514 11.726 11.4698C12.839 10.6464 14.4695 9.49143 16.6173 8.00477C16.9905 7.74477 17.3181 7.45393 17.6 7.13227ZM17.6 4.17727C17.6 4.70727 17.4395 5.2131 17.1184 5.69477C16.7974 6.17643 16.3981 6.5881 15.9207 6.92977C13.4583 8.6781 11.9264 9.76643 11.3251 10.1948C11.2583 10.2414 11.119 10.3439 10.9071 10.5023C10.6936 10.6589 10.5168 10.7856 10.3767 10.8823C10.2349 10.9806 10.0646 11.0898 9.86578 11.2098C9.66533 11.3298 9.47711 11.4198 9.30111 11.4798C9.12348 11.5414 8.9597 11.5723 8.80978 11.5723H8.8H8.79022C8.6403 11.5723 8.47652 11.5414 8.29889 11.4798C8.12289 11.4198 7.93467 11.3298 7.73422 11.2098C7.53541 11.0898 7.36511 10.9806 7.22333 10.8823C7.08319 10.7856 6.90637 10.6589 6.69289 10.5023C6.48104 10.3439 6.3417 10.2414 6.27489 10.1948C5.68007 9.76643 4.82289 9.1556 3.70333 8.36227C2.58378 7.56893 1.91237 7.09143 1.68911 6.92977C1.28333 6.64977 0.90037 6.2631 0.540222 5.76977C0.180074 5.2781 0 4.82143 0 4.39977C0 3.87643 0.136074 3.44143 0.408222 3.09477C0.678741 2.74643 1.06659 2.57227 1.57178 2.57227H16.0282C16.4536 2.57227 16.8219 2.72893 17.1331 3.04227C17.4444 3.35727 17.6 3.7356 17.6 4.17727Z" fill="black"/>
</svg>
