<svg width="372" height="380" viewBox="0 0 372 380" fill="none" xmlns="http://www.w3.org/2000/svg">
<g opacity="0.8">
<g clip-path="url(#clip0_1875_9009)">
<path d="M513.601 257.559C513.601 398.229 399.261 512.273 258.205 512.273C117.148 512.273 2.80859 398.229 2.80859 257.559C2.80859 116.89 117.148 2.8457 258.205 2.8457C399.261 2.8457 513.601 116.89 513.601 257.559Z" stroke="#F2F0FF" stroke-width="4"/>
<path d="M468.469 256.795C468.469 375.134 372.28 471.075 253.613 471.075C134.947 471.075 38.7578 375.134 38.7578 256.795C38.7578 138.456 134.947 42.5146 253.613 42.5146C372.28 42.5146 468.469 138.456 468.469 256.795Z" stroke="#F2F0FF" stroke-width="4"/>
<path d="M428.693 257.565C428.693 355.683 349.11 435.226 250.936 435.226C152.763 435.226 73.1797 355.683 73.1797 257.565C73.1797 159.446 152.763 79.9028 250.936 79.9028C349.11 79.9028 428.693 159.446 428.693 257.565Z" stroke="#F2F0FF" stroke-width="4"/>
<path d="M394.269 257.555C394.269 336.288 330.272 400.123 251.316 400.123C172.36 400.123 108.363 336.288 108.363 257.555C108.363 178.821 172.36 114.986 251.316 114.986C330.272 114.986 394.269 178.821 394.269 257.555Z" stroke="#F2F0FF" stroke-width="4"/>
<path d="M353.733 257.562C353.733 316.493 305.832 364.274 246.732 364.274C187.632 364.274 139.73 316.493 139.73 257.562C139.73 198.631 187.632 150.85 246.732 150.85C305.832 150.85 353.733 198.631 353.733 257.562Z" stroke="#F2F0FF" stroke-width="4"/>
<path d="M326.194 257.558C326.194 301.32 290.622 336.806 246.73 336.806C202.838 336.806 167.266 301.32 167.266 257.558C167.266 213.795 202.838 178.31 246.73 178.31C290.622 178.31 326.194 213.795 326.194 257.558Z" stroke="#F2F0FF" stroke-width="4"/>
<path d="M287.184 257.56C287.184 281.942 267.366 301.715 242.907 301.715C218.448 301.715 198.629 281.942 198.629 257.56C198.629 233.179 218.448 213.405 242.907 213.405C267.366 213.405 287.184 233.179 287.184 257.56Z" stroke="#F2F0FF" stroke-width="4"/>
</g>
</g>
<defs>
<clipPath id="clip0_1875_9009">
<rect width="371" height="385" fill="white" transform="translate(0.5 0.546875)"/>
</clipPath>
</defs>
</svg>
