<svg width="20" height="21" viewBox="0 0 20 21" fill="none" xmlns="http://www.w3.org/2000/svg">
<path d="M16.9996 10.8994V14.624C16.9996 15.5535 16.67 16.3487 16.0108 17.0099C15.3497 17.669 14.5544 17.9986 13.625 17.9986H3.87458C2.94514 17.9986 2.15083 17.669 1.49167 17.0099C0.830556 16.3487 0.5 15.5535 0.5 14.624V4.87361C0.5 3.94416 0.830556 3.14986 1.49167 2.49069C2.15083 1.82958 2.94514 1.49902 3.87458 1.49902H13.625C14.1169 1.49902 14.5739 1.59722 14.9958 1.79361C15.1125 1.84805 15.1825 1.9375 15.2058 2.06194C15.2292 2.19416 15.1942 2.30791 15.1008 2.40319L14.5263 2.97777C14.4485 3.05555 14.359 3.09444 14.2579 3.09444C14.2346 3.09444 14.1996 3.08666 14.1529 3.07111C13.9721 3.02444 13.7961 3.00111 13.625 3.00111H3.87458C3.35931 3.00111 2.91792 3.18388 2.55042 3.54944C2.18292 3.91694 1.99917 4.35833 1.99917 4.87361V14.624C1.99917 15.1393 2.18292 15.5807 2.55042 15.9482C2.91792 16.3157 3.35931 16.4994 3.87458 16.4994H13.625C14.1403 16.4994 14.5817 16.3157 14.9492 15.9482C15.3167 15.5807 15.5004 15.1393 15.5004 14.624V11.649C15.5004 11.5479 15.5354 11.4614 15.6054 11.3894L16.355 10.6399C16.4328 10.5621 16.5232 10.5232 16.6263 10.5232C16.6729 10.5232 16.7196 10.5349 16.7663 10.5582C16.9218 10.6204 16.9996 10.7342 16.9996 10.8994ZM19.7063 5.16819L10.1688 14.7057C9.98014 14.8943 9.7575 14.9886 9.50083 14.9886C9.24222 14.9886 9.01958 14.8943 8.83292 14.7057L3.79292 9.66861C3.60625 9.48 3.51292 9.25736 3.51292 9.00069C3.51292 8.74208 3.60625 8.51944 3.79292 8.33277L5.08208 7.04361C5.26875 6.855 5.49139 6.76069 5.75 6.76069C6.00861 6.76069 6.23125 6.855 6.41792 7.04361L9.50083 10.1236L17.0813 2.54319C17.2699 2.35458 17.4925 2.26027 17.7492 2.26027C18.0078 2.26027 18.2304 2.35458 18.4171 2.54319L19.7063 3.83236C19.8949 4.01902 19.9892 4.24166 19.9892 4.50027C19.9892 4.75694 19.8949 4.97958 19.7063 5.16819Z" fill="#EA3335"/>
</svg>
